<svg xmlns="http://www.w3.org/2000/svg" width="1254" height="1254" viewBox="0 0 1254 1254">
  <circle cx="627" cy="627" r="572" fill="#790626"/>
  <g fill="#FFE8BA" transform="translate(627 627) scale(0.955671625) translate(-627 -627)">
    <path d="M 337.03,406.13 L 335.45,406.70 L 333.82,407.06 L 332.12,407.07 L 330.38,406.95 L 328.66,406.92 L 327.01,407.17 L 325.42,407.72 L 323.79,408.04 L 322.07,408.00 L 320.34,407.95 L 318.70,408.26 L 317.12,408.80 L 315.46,409.04 L 313.75,409.01 L 312.03,409.01 L 310.38,409.28 L 308.79,409.79 L 307.19,410.24 L 305.58,410.70 L 303.93,410.95 L 302.24,411.03 L 300.58,411.27 L 298.98,411.74 L 297.37,412.16 L 295.76,412.58 L 294.14,412.97 L 292.52,413.36 L 290.91,413.79 L 289.28,414.16 L 287.67,414.59 L 286.06,415.00 L 284.44,415.39 L 282.82,415.78 L 281.19,416.13 L 279.61,416.72 L 278.07,417.42 L 276.48,417.96 L 274.85,418.30 L 273.23,418.68 L 271.60,419.02 L 270.01,419.56 L 268.47,420.27 L 266.89,420.84 L 265.25,421.13 L 263.65,421.62 L 262.13,422.41 L 260.61,423.25 L 259.04,423.82 L 257.40,424.14 L 255.80,424.59 L 254.24,425.27 L 252.72,426.07 L 251.21,426.92 L 249.69,427.73 L 248.16,428.49 L 246.61,429.20 L 245.04,429.78 L 243.40,430.12 L 241.81,430.60 L 240.26,431.30 L 238.74,432.09 L 237.22,432.90 L 235.69,433.69 L 234.15,434.44 L 232.62,435.19 L 231.08,435.94 L 229.56,436.71 L 228.03,437.50 L 226.50,438.27 L 224.96,439.02 L 223.42,439.77 L 221.88,440.52 L 220.35,441.29 L 218.92,442.19 L 217.64,443.31 L 216.31,444.35 L 214.81,445.16 L 213.25,445.89 L 211.71,446.64 L 210.16,447.38 L 208.61,448.12 L 207.17,449.02 L 205.89,450.13 L 204.56,451.17 L 203.05,451.97 L 201.54,452.76 L 200.21,453.80 L 198.93,454.92 L 197.47,455.78 L 195.94,456.55 L 194.53,457.48 L 193.24,458.58 L 191.89,459.60 L 190.52,460.59 L 189.20,461.64 L 187.82,462.62 L 186.46,463.63 L 185.14,464.69 L 183.76,465.66 L 182.39,466.66 L 181.08,467.73 L 179.73,468.74 L 178.35,469.72 L 176.99,470.71 L 175.63,471.72 L 174.31,472.77 L 173.03,473.90 L 171.85,475.14 L 170.67,476.40 L 169.42,477.56 L 168.02,478.50 L 166.61,479.43 L 165.35,480.57 L 164.15,481.80 L 162.96,483.04 L 161.76,484.26 L 160.55,485.47 L 159.33,486.67 L 158.12,487.88 L 156.91,489.09 L 155.70,490.30 L 154.49,491.51 L 153.28,492.72 L 152.07,493.93 L 150.85,495.14 L 149.63,496.35 L 148.41,497.55 L 147.27,498.81 L 146.35,500.23 L 145.39,501.62 L 144.23,502.86 L 142.96,504.04 L 141.71,505.22 L 140.55,506.46 L 139.57,507.84 L 138.63,509.25 L 137.57,510.56 L 136.56,511.92 L 135.57,513.29 L 134.51,514.61 L 133.52,515.97 L 132.53,517.35 L 131.47,518.67 L 130.48,520.04 L 129.47,521.39 L 128.39,522.69 L 127.46,524.11 L 126.66,525.61 L 125.79,527.07 L 124.76,528.41 L 123.69,529.72 L 122.78,531.15 L 122.09,532.73 L 121.42,534.34 L 120.64,535.86 L 119.66,537.23 L 118.53,538.50 L 117.56,539.88 L 116.77,541.40 L 116.01,542.93 L 115.25,544.47 L 114.49,546.01 L 113.73,547.54 L 112.97,549.08 L 112.21,550.61 L 111.45,552.14 L 110.68,553.66 L 109.90,555.19 L 109.12,556.72 L 108.34,558.25 L 107.57,559.78 L 106.83,561.32 L 106.21,562.88 L 105.91,564.52 L 105.47,566.13 L 104.71,567.66 L 103.84,569.17 L 103.23,570.74 L 102.95,572.38 L 102.51,573.99 L 101.77,575.53 L 100.95,577.05 L 100.28,578.60 L 99.95,580.23 L 99.53,581.85 L 98.84,583.40 L 98.20,584.96 L 97.82,586.58 L 97.45,588.20 L 97.06,589.82 L 96.65,591.44 L 96.21,593.05 L 95.85,594.67 L 95.44,596.29 L 95.03,597.90 L 94.58,599.51 L 94.16,601.12 L 94.00,602.80 L 93.90,604.48 L 93.55,606.12 L 93.09,607.72 L 92.62,609.32 L 92.14,610.92 L 91.99,612.59 L 92.05,614.32 L 92.00,616.02 L 91.60,617.64 L 91.10,619.23 L 90.98,620.91 L 91.04,622.64 L 90.95,624.33 L 90.53,625.94 L 90.09,627.55 L 89.95,629.23 L 89.94,630.94 L 89.99,632.66 L 90.02,634.38 L 90.03,636.09 L 90.02,637.81 L 90.00,639.52 L 89.99,641.23 L 89.98,642.94 L 89.99,644.65 L 90.00,646.36 L 90.02,648.07 L 90.03,649.78 L 90.02,651.50 L 89.99,653.21 L 89.95,654.93 L 89.95,656.64 L 90.06,658.33 L 90.48,659.94 L 90.93,661.55 L 91.07,663.23 L 91.01,664.95 L 90.93,666.68 L 91.04,668.37 L 91.49,669.98 L 91.91,671.59 L 92.02,673.27 L 92.19,674.95 L 92.66,676.55 L 92.97,678.19 L 93.06,679.88 L 93.29,681.53 L 93.75,683.14 L 94.20,684.74 L 94.68,686.34 L 94.95,687.99 L 95.03,689.68 L 95.25,691.34 L 95.72,692.94 L 96.15,694.55 L 96.55,696.17 L 96.93,697.79 L 97.34,699.41 L 97.95,700.98 L 98.58,702.54 L 99.10,704.13 L 99.53,705.74 L 100.07,707.32 L 100.70,708.89 L 101.12,710.50 L 101.67,712.08 L 102.28,713.65 L 102.76,715.25 L 103.22,716.85 L 103.74,718.44 L 104.41,719.99 L 105.21,721.52 L 106.05,723.03 L 106.86,724.55 L 107.53,726.11 L 107.96,727.71 L 108.31,729.33 L 108.90,730.92 L 109.64,732.46 L 110.44,733.99 L 111.24,735.51 L 112.03,737.03 L 112.82,738.54 L 113.60,740.06 L 114.36,741.59 L 115.10,743.13 L 115.83,744.69 L 116.55,746.25 L 117.29,747.81 L 118.07,749.33 L 118.89,750.82 L 119.80,752.25 L 120.78,753.62 L 121.80,754.97 L 122.71,756.39 L 123.43,757.96 L 124.17,759.51 L 125.15,760.89 L 126.23,762.20 L 127.20,763.57 L 128.02,765.07 L 128.84,766.56 L 129.90,767.88 L 130.99,769.18 L 131.84,770.65 L 132.61,772.17 L 133.56,773.57 L 134.66,774.86 L 135.67,776.22 L 136.68,777.57 L 137.73,778.90 L 138.65,780.32 L 139.68,781.66 L 140.89,782.87 L 142.11,784.07 L 143.15,785.41 L 144.01,786.87 L 145.09,788.18 L 146.35,789.35 L 147.63,790.51 L 148.79,791.75 L 149.82,793.10 L 150.81,794.47 L 151.86,795.80 L 153.00,797.06 L 154.21,798.27 L 155.45,799.45 L 156.69,800.64 L 157.88,801.88 L 159.05,803.13 L 160.29,804.30 L 161.65,805.30 L 163.07,806.23 L 164.39,807.29 L 165.61,808.48 L 166.78,809.75 L 167.93,811.03 L 169.13,812.27 L 170.40,813.39 L 171.81,814.33 L 173.21,815.27 L 174.45,816.44 L 175.63,817.70 L 176.89,818.84 L 178.35,819.70 L 179.89,820.45 L 181.33,821.35 L 182.61,822.46 L 183.95,823.49 L 185.33,824.47 L 186.66,825.52 L 188.03,826.50 L 189.38,827.52 L 190.66,828.63 L 192.07,829.56 L 193.64,830.28 L 195.19,831.03 L 196.57,831.99 L 197.94,832.99 L 199.33,833.94 L 200.77,834.84 L 202.24,835.68 L 203.76,836.47 L 205.31,837.21 L 206.87,837.94 L 208.42,838.68 L 209.95,839.44 L 211.48,840.21 L 213.00,840.99 L 214.52,841.76 L 216.05,842.54 L 217.58,843.31 L 219.11,844.07 L 220.65,844.83 L 222.18,845.59 L 223.72,846.35 L 225.25,847.10 L 226.78,847.86 L 228.30,848.65 L 229.81,849.51 L 231.35,850.25 L 232.96,850.71 L 234.57,851.10 L 236.15,851.66 L 237.71,852.32 L 239.30,852.85 L 240.93,853.19 L 242.50,853.78 L 244.05,854.46 L 245.65,854.94 L 247.28,855.29 L 248.85,855.91 L 250.40,856.60 L 252.00,857.06 L 253.63,857.40 L 255.25,857.81 L 256.87,858.20 L 258.47,858.64 L 260.10,859.01 L 261.72,859.40 L 263.32,859.86 L 264.93,860.28 L 266.56,860.65 L 268.20,860.93 L 269.88,861.09 L 271.52,861.36 L 273.13,861.80 L 274.80,861.98 L 276.48,862.12 L 278.10,862.54 L 279.72,862.90 L 281.41,863.01 L 283.07,863.23 L 284.66,863.74 L 286.31,864.00 L 288.02,864.00 L 289.72,864.04 L 291.37,864.30 L 293.00,864.68 L 294.65,864.95 L 296.33,865.08 L 298.03,865.11 L 299.75,865.08 L 301.48,865.02 L 303.20,864.97 L 304.92,864.94 L 306.63,864.94 L 308.34,864.96 L 310.04,864.99 L 311.75,865.02 L 313.46,865.03 L 315.17,865.03 L 316.88,865.02 L 318.60,865.00 L 320.32,864.99 L 322.03,864.97 L 323.73,864.97 L 325.44,864.99 L 327.16,865.04 L 328.89,865.08 L 330.56,864.92 L 332.16,864.44 L 333.77,864.01 L 335.46,863.92 L 337.20,864.01 L 338.93,864.09 L 340.59,863.90 L 342.19,863.42 L 343.82,863.07 L 345.51,862.98 L 347.17,862.75 L 348.77,862.27 L 350.42,862.02 L 352.11,861.93 L 353.76,861.65 L 355.36,861.18 L 356.96,860.73 L 358.57,860.26 L 360.22,860.04 L 361.92,859.96 L 363.57,859.69 L 365.16,859.21 L 366.78,858.79 L 368.39,858.39 L 370.03,858.05 L 371.63,857.60 L 373.18,856.92 L 374.74,856.27 L 376.36,855.86 L 377.99,855.51 L 379.61,855.15 L 381.23,854.74 L 382.78,854.08 L 384.34,853.42 L 385.96,853.01 L 387.57,852.61 L 389.13,851.93 L 390.69,851.29 L 392.32,850.96 L 393.93,850.52 L 395.47,849.79 L 396.99,848.97 L 398.54,848.30 L 400.17,847.95 L 401.79,847.57 L 403.35,846.91 L 404.87,846.12 L 406.39,845.29 L 407.90,844.47 L 409.44,843.74 L 411.03,843.19 L 412.67,842.86 L 414.27,842.39 L 415.81,841.69 L 417.31,840.87 L 418.83,840.04 L 420.37,839.27 L 421.93,838.54 L 423.48,837.81 L 425.00,837.04 L 426.50,836.26 L 428.00,835.46 L 429.52,834.67 L 431.06,833.91 L 432.65,833.19 L 434.28,832.51 L 435.81,831.74 L 437.04,830.69 L 437.81,829.25 L 438.11,827.61 L 438.10,825.89 L 438.02,824.14 L 437.97,822.41 L 437.96,820.69 L 437.96,818.99 L 437.98,817.28 L 437.99,815.58 L 438.00,813.87 L 438.01,812.16 L 438.01,810.45 L 438.01,808.74 L 438.01,807.02 L 438.01,805.31 L 438.01,803.60 L 438.01,801.88 L 438.00,800.17 L 438.00,798.45 L 438.00,796.74 L 437.99,795.03 L 437.99,793.32 L 437.99,791.61 L 437.99,789.90 L 437.99,788.19 L 437.99,786.48 L 437.99,784.77 L 438.00,783.06 L 438.00,781.35 L 438.00,779.63 L 438.00,777.92 L 438.01,776.21 L 438.01,774.49 L 438.01,772.77 L 438.02,771.06 L 438.01,769.35 L 438.01,767.64 L 438.00,765.93 L 437.98,764.23 L 437.97,762.52 L 437.97,760.82 L 437.97,759.10 L 438.00,757.38 L 438.04,755.65 L 438.08,753.91 L 438.08,752.17 L 437.99,750.45 L 437.56,749.16 L 436.44,749.13 L 434.96,750.12 L 433.40,751.45 L 432.01,752.51 L 430.79,753.41 L 429.52,754.49 L 428.07,755.43 L 426.52,756.21 L 425.06,757.09 L 423.81,758.23 L 422.49,759.28 L 420.95,760.02 L 419.35,760.71 L 417.89,761.58 L 416.56,762.62 L 415.23,763.66 L 413.80,764.56 L 412.30,765.37 L 410.78,766.15 L 409.24,766.91 L 407.70,767.67 L 406.16,768.43 L 404.63,769.19 L 403.10,769.95 L 401.56,770.71 L 400.03,771.46 L 398.50,772.23 L 396.97,772.99 L 395.44,773.76 L 393.91,774.53 L 392.39,775.31 L 390.86,776.10 L 389.33,776.89 L 387.81,777.68 L 386.26,778.38 L 384.66,778.85 L 383.02,779.16 L 381.44,779.72 L 379.93,780.56 L 378.40,781.35 L 376.81,781.84 L 375.17,782.16 L 373.60,782.75 L 372.04,783.39 L 370.45,783.90 L 368.84,784.34 L 367.22,784.72 L 365.59,785.07 L 363.97,785.50 L 362.36,785.92 L 360.74,786.30 L 359.13,786.73 L 357.51,787.12 L 355.90,787.56 L 354.27,787.91 L 352.60,788.07 L 350.93,788.25 L 349.30,788.60 L 347.67,788.95 L 346.00,789.11 L 344.35,789.39 L 342.75,789.86 L 341.08,790.05 L 339.35,789.97 L 337.65,790.03 L 336.05,790.45 L 334.45,790.91 L 332.76,791.08 L 331.04,791.08 L 329.31,791.04 L 327.60,791.00 L 325.90,790.96 L 324.20,790.94 L 322.49,790.94 L 320.78,790.97 L 319.05,791.03 L 317.32,791.09 L 315.60,791.12 L 313.90,791.06 L 312.22,790.90 L 310.59,790.58 L 308.97,790.20 L 307.31,790.00 L 305.59,790.03 L 303.89,789.98 L 302.27,789.59 L 300.66,789.13 L 298.98,788.99 L 297.30,788.85 L 295.70,788.41 L 294.07,788.06 L 292.38,787.96 L 290.72,787.76 L 289.11,787.30 L 287.50,786.86 L 285.89,786.46 L 284.26,786.11 L 282.64,785.70 L 281.09,785.02 L 279.53,784.37 L 277.91,783.99 L 276.30,783.56 L 274.75,782.87 L 273.19,782.25 L 271.55,781.92 L 269.94,781.49 L 268.40,780.75 L 266.89,779.89 L 265.33,779.26 L 263.71,778.91 L 262.09,778.51 L 260.52,777.87 L 258.99,777.08 L 257.48,776.24 L 255.97,775.42 L 254.45,774.65 L 252.91,773.93 L 251.34,773.23 L 249.77,772.50 L 248.28,771.67 L 246.89,770.70 L 245.61,769.60 L 244.22,768.64 L 242.69,767.86 L 241.22,767.02 L 239.92,765.93 L 238.61,764.86 L 237.12,764.04 L 235.60,763.26 L 234.23,762.27 L 232.94,761.17 L 231.57,760.18 L 230.23,759.15 L 228.89,758.12 L 227.47,757.19 L 226.13,756.16 L 224.91,754.97 L 223.74,753.71 L 222.55,752.46 L 221.28,751.34 L 219.86,750.42 L 218.48,749.45 L 217.23,748.29 L 216.00,747.08 L 214.80,745.86 L 213.66,744.59 L 212.64,743.24 L 211.69,741.85 L 210.65,740.51 L 209.39,739.34 L 208.04,738.23 L 206.92,736.96 L 205.97,735.56 L 205.00,734.18 L 203.85,732.92 L 202.62,731.72 L 201.47,730.47 L 200.55,729.05 L 199.78,727.52 L 198.91,726.07 L 197.79,724.79 L 196.76,723.45 L 195.97,721.93 L 195.17,720.43 L 194.11,719.11 L 193.01,717.82 L 192.15,716.36 L 191.38,714.82 L 190.62,713.29 L 189.87,711.75 L 189.12,710.21 L 188.36,708.68 L 187.60,707.15 L 186.82,705.62 L 186.03,704.09 L 185.24,702.57 L 184.47,701.04 L 183.74,699.50 L 183.18,697.92 L 182.89,696.28 L 182.37,694.69 L 181.59,693.16 L 180.79,691.64 L 180.17,690.07 L 179.84,688.44 L 179.50,686.81 L 179.09,685.19 L 178.61,683.59 L 178.04,682.02 L 177.38,680.46 L 176.91,678.86 L 176.49,677.24 L 176.14,675.62 L 176.01,673.93 L 175.84,672.26 L 175.40,670.66 L 175.06,669.02 L 174.94,667.34 L 174.71,665.68 L 174.28,664.07 L 173.94,662.44 L 173.97,660.72 L 173.99,659.01 L 173.68,657.37 L 173.21,655.76 L 172.95,654.11 L 172.89,652.42 L 172.94,650.70 L 173.03,648.96 L 173.07,647.24 L 173.04,645.53 L 172.98,643.83 L 172.95,642.13 L 172.99,640.42 L 173.03,638.70 L 173.03,636.98 L 172.98,635.26 L 172.94,633.55 L 172.96,631.84 L 173.15,630.17 L 173.65,628.58 L 174.02,626.95 L 174.03,625.25 L 173.96,623.52 L 174.16,621.85 L 174.67,620.26 L 175.14,618.66 L 175.53,617.04 L 175.85,615.40 L 176.05,613.74 L 176.21,612.06 L 176.59,610.44 L 176.98,608.82 L 177.48,607.23 L 178.15,605.68 L 178.77,604.11 L 179.17,602.49 L 179.55,600.87 L 179.89,599.24 L 180.28,597.62 L 180.91,596.06 L 181.71,594.53 L 182.55,593.02 L 183.30,591.48 L 183.83,589.90 L 184.17,588.27 L 184.65,586.67 L 185.33,585.11 L 186.13,583.58 L 186.97,582.07 L 187.78,580.56 L 188.56,579.05 L 189.29,577.51 L 190.00,575.94 L 190.71,574.37 L 191.48,572.83 L 192.32,571.35 L 193.29,569.97 L 194.35,568.66 L 195.31,567.26 L 196.10,565.75 L 196.94,564.28 L 198.03,562.97 L 199.10,561.67 L 199.92,560.18 L 200.71,558.66 L 201.69,557.28 L 202.79,555.99 L 203.76,554.61 L 204.79,553.27 L 205.94,552.01 L 207.12,550.78 L 208.21,549.48 L 209.20,548.11 L 210.20,546.75 L 211.34,545.49 L 212.62,544.34 L 213.89,543.17 L 215.10,541.95 L 216.28,540.72 L 217.47,539.49 L 218.69,538.29 L 219.91,537.09 L 221.14,535.90 L 222.35,534.68 L 223.54,533.44 L 224.72,532.20 L 225.95,531.02 L 227.27,529.97 L 228.68,529.03 L 230.02,528.00 L 231.35,526.95 L 232.74,525.98 L 234.07,524.94 L 235.41,523.91 L 236.79,522.94 L 238.13,521.90 L 239.47,520.88 L 240.85,519.90 L 242.15,518.82 L 243.51,517.81 L 245.00,516.98 L 246.49,516.17 L 247.87,515.19 L 249.18,514.11 L 250.54,513.12 L 252.09,512.37 L 253.69,511.71 L 255.23,510.95 L 256.67,510.06 L 258.02,509.04 L 259.33,507.98 L 260.73,507.03 L 262.28,506.27 L 263.86,505.58 L 265.41,504.86 L 266.92,504.09 L 268.43,503.25 L 269.95,502.42 L 271.50,501.71 L 273.09,501.19 L 274.73,500.87 L 276.32,500.38 L 277.86,499.65 L 279.37,498.79 L 280.89,497.96 L 282.45,497.33 L 284.08,497.00 L 285.71,496.64 L 287.25,495.94 L 288.76,495.05 L 290.31,494.37 L 291.94,494.02 L 293.56,493.64 L 295.11,492.97 L 296.67,492.29 L 298.28,491.88 L 299.91,491.53 L 301.53,491.12 L 303.14,490.73 L 304.75,490.29 L 306.38,489.91 L 307.99,489.52 L 309.61,489.10 L 311.22,488.67 L 312.82,488.22 L 314.49,488.03 L 316.18,487.93 L 317.80,487.56 L 319.41,487.13 L 321.09,487.00 L 322.77,486.85 L 324.37,486.38 L 326.00,486.01 L 327.70,485.97 L 329.42,486.02 L 331.09,485.84 L 332.67,485.30 L 334.31,484.97 L 336.01,484.92 L 337.74,484.97 L 339.46,485.01 L 341.17,485.02 L 342.88,485.02 L 344.59,485.02 L 346.30,485.01 L 348.01,485.00 L 349.72,485.00 L 351.43,484.99 L 353.15,484.99 L 354.86,484.99 L 356.57,484.99 L 358.29,484.99 L 360.00,484.99 L 361.71,485.00 L 363.42,485.01 L 365.13,485.02 L 366.81,485.13 L 368.41,485.59 L 370.05,485.94 L 371.73,486.05 L 373.38,486.31 L 374.98,486.78 L 376.65,486.98 L 378.33,487.10 L 379.95,487.49 L 381.57,487.90 L 383.25,488.02 L 384.93,488.17 L 386.54,488.60 L 388.14,489.05 L 389.76,489.44 L 391.39,489.81 L 393.00,490.21 L 394.56,490.87 L 396.13,491.45 L 397.74,491.89 L 399.34,492.37 L 400.90,493.00 L 402.47,493.62 L 404.10,493.98 L 405.71,494.39 L 407.25,495.11 L 408.77,495.93 L 410.32,496.61 L 411.94,496.98 L 413.57,497.37 L 415.12,498.04 L 416.66,498.78 L 418.19,499.56 L 419.71,500.35 L 421.23,501.14 L 422.76,501.91 L 424.30,502.67 L 425.84,503.41 L 427.38,504.15 L 428.92,504.91 L 430.41,505.74 L 431.74,506.78 L 433.03,507.89 L 434.49,508.75 L 436.02,509.51 L 437.42,510.47 L 438.68,511.60 L 440.08,512.55 L 441.61,513.32 L 443.08,514.18 L 444.38,515.25 L 445.70,516.31 L 447.08,517.29 L 448.40,518.35 L 449.77,519.33 L 451.17,520.29 L 452.46,521.38 L 453.68,522.58 L 454.85,523.85 L 456.02,525.12 L 457.23,526.33 L 458.50,527.45 L 459.88,528.42 L 461.28,529.37 L 462.59,530.47 L 463.80,531.69 L 464.87,533.02 L 465.76,534.45 L 466.77,535.81 L 467.96,537.03 L 469.22,538.21 L 470.47,539.39 L 471.60,540.66 L 472.56,542.05 L 473.52,543.44 L 474.58,544.76 L 475.57,546.13 L 476.61,547.46 L 477.70,548.76 L 478.59,550.20 L 479.35,551.73 L 480.25,553.17 L 481.39,554.43 L 482.41,555.78 L 483.20,557.29 L 483.90,558.87 L 484.69,560.39 L 485.72,561.72 L 486.84,562.99 L 487.76,564.42 L 488.57,565.94 L 489.30,567.50 L 489.82,569.10 L 490.13,570.73 L 490.63,572.32 L 491.35,573.86 L 492.17,575.38 L 493.00,576.90 L 493.79,578.42 L 494.47,579.97 L 494.91,581.58 L 495.26,583.21 L 495.88,584.78 L 496.57,586.32 L 497.04,587.93 L 497.39,589.56 L 497.79,591.17 L 498.18,592.79 L 498.62,594.40 L 499.01,596.02 L 499.39,597.64 L 499.81,599.25 L 500.23,600.87 L 500.70,602.47 L 500.95,604.12 L 501.04,605.81 L 501.31,607.46 L 501.78,609.06 L 502.05,610.71 L 502.10,612.41 L 502.03,614.14 L 501.95,615.87 L 501.92,617.59 L 501.98,619.29 L 502.20,620.95 L 502.68,622.54 L 502.96,624.19 L 503.03,625.89 L 503.04,627.59 L 503.03,629.31 L 503.02,631.02 L 503.01,632.74 L 503.00,634.45 L 503.00,636.16 L 503.00,637.88 L 502.99,639.59 L 502.99,641.30 L 502.99,643.01 L 502.99,644.72 L 502.99,646.44 L 502.99,648.15 L 502.99,649.86 L 502.99,651.57 L 503.00,653.28 L 503.00,654.99 L 503.00,656.71 L 503.00,658.42 L 503.00,660.13 L 503.00,661.84 L 503.00,663.55 L 503.00,665.26 L 503.00,666.98 L 503.00,668.69 L 503.00,670.40 L 503.00,672.11 L 503.00,673.82 L 503.00,675.54 L 503.00,677.25 L 503.00,678.96 L 503.00,680.67 L 503.00,682.38 L 503.00,684.10 L 503.00,685.81 L 503.00,687.52 L 503.00,689.23 L 503.00,690.94 L 503.00,692.66 L 503.00,694.37 L 503.00,696.08 L 503.00,697.79 L 503.00,699.50 L 503.00,701.22 L 503.00,702.93 L 503.00,704.64 L 503.00,706.35 L 503.00,708.06 L 503.00,709.77 L 503.00,711.49 L 503.00,713.20 L 503.00,714.91 L 503.00,716.62 L 503.00,718.33 L 502.99,720.05 L 502.99,721.76 L 502.99,723.47 L 502.99,725.18 L 502.99,726.89 L 502.99,728.60 L 502.99,730.32 L 502.99,732.03 L 502.99,733.74 L 503.00,735.45 L 503.01,737.16 L 503.03,738.88 L 503.04,740.59 L 503.04,742.30 L 503.03,744.02 L 503.00,745.73 L 502.93,747.44 L 502.74,749.11 L 502.40,750.67 L 502.57,752.21 L 502.91,753.81 L 503.03,755.50 L 503.02,757.22 L 503.01,758.94 L 503.01,760.66 L 503.00,762.37 L 503.00,764.09 L 503.00,765.80 L 503.00,767.51 L 503.00,769.22 L 503.00,770.93 L 503.00,772.65 L 503.00,774.36 L 503.00,776.07 L 503.00,777.78 L 503.00,779.49 L 503.00,781.20 L 503.00,782.91 L 503.00,784.62 L 503.00,786.33 L 503.00,788.05 L 503.00,789.76 L 503.00,791.47 L 503.00,793.18 L 503.00,794.89 L 503.00,796.60 L 503.00,798.32 L 503.00,800.03 L 503.00,801.74 L 503.00,803.45 L 503.00,805.16 L 503.00,806.88 L 503.00,808.59 L 503.00,810.30 L 503.00,812.02 L 503.00,813.73 L 503.00,815.44 L 503.00,817.15 L 503.00,818.87 L 502.99,820.58 L 502.99,822.29 L 502.99,824.00 L 502.99,825.72 L 502.99,827.43 L 502.99,829.14 L 502.99,830.85 L 502.99,832.56 L 503.00,834.27 L 503.00,835.98 L 503.00,837.69 L 503.00,839.40 L 503.01,841.11 L 503.01,842.82 L 503.01,844.53 L 503.02,846.23 L 503.02,847.94 L 503.02,849.65 L 503.02,851.37 L 503.00,853.10 L 502.97,854.85 L 502.92,856.60 L 502.91,858.32 L 503.00,859.95 L 503.72,860.94 L 505.25,861.12 L 506.99,861.09 L 508.75,861.04 L 510.50,861.01 L 512.23,860.99 L 513.96,860.98 L 515.67,860.97 L 517.38,860.97 L 519.09,860.98 L 520.79,860.98 L 522.49,860.99 L 524.20,861.00 L 525.90,861.01 L 527.61,861.01 L 529.32,861.01 L 531.03,861.01 L 532.75,861.01 L 534.46,861.01 L 536.18,861.01 L 537.89,861.01 L 539.61,861.00 L 541.33,861.00 L 543.04,861.00 L 544.75,861.00 L 546.47,860.99 L 548.18,860.99 L 549.89,860.99 L 551.59,860.99 L 553.30,860.99 L 555.01,860.99 L 556.72,860.99 L 558.43,861.00 L 560.14,861.00 L 561.85,861.00 L 563.57,861.01 L 565.29,861.01 L 567.01,861.01 L 568.73,861.02 L 570.44,861.01 L 572.15,861.00 L 573.84,860.99 L 575.52,860.96 L 577.21,860.94 L 579.00,861.02 L 580.88,861.19 L 582.42,861.02 L 583.02,859.90 L 583.03,858.20 L 583.02,856.48 L 583.02,854.76 L 583.01,853.05 L 583.00,851.33 L 583.00,849.61 L 583.00,847.90 L 583.00,846.19 L 583.00,844.47 L 583.00,842.76 L 583.00,841.05 L 583.00,839.34 L 583.00,837.63 L 583.00,835.91 L 583.00,834.20 L 583.00,832.49 L 583.00,830.78 L 583.00,829.07 L 583.00,827.36 L 583.00,825.64 L 583.00,823.93 L 583.00,822.22 L 583.00,820.51 L 583.00,818.80 L 583.00,817.09 L 583.00,815.37 L 583.00,813.66 L 583.00,811.95 L 583.00,810.24 L 583.00,808.53 L 583.00,806.82 L 583.00,805.10 L 583.00,803.39 L 583.00,801.68 L 583.00,799.97 L 583.00,798.26 L 583.00,796.54 L 583.00,794.83 L 583.00,793.12 L 583.00,791.41 L 583.00,789.70 L 583.00,787.98 L 583.00,786.27 L 583.00,784.56 L 583.00,782.85 L 583.00,781.14 L 583.00,779.43 L 583.00,777.71 L 583.00,776.00 L 583.00,774.29 L 583.00,772.58 L 583.00,770.87 L 583.00,769.15 L 583.00,767.44 L 583.00,765.73 L 583.00,764.02 L 583.00,762.31 L 583.00,760.59 L 583.00,758.88 L 583.00,757.17 L 583.00,755.46 L 583.00,753.75 L 583.00,752.03 L 583.00,750.32 L 583.00,748.61 L 583.00,746.90 L 583.00,745.19 L 583.00,743.47 L 583.00,741.76 L 583.00,740.05 L 583.00,738.34 L 583.00,736.63 L 583.00,734.92 L 583.00,733.20 L 583.00,731.49 L 583.00,729.78 L 583.00,728.07 L 583.00,726.36 L 583.00,724.64 L 583.00,722.93 L 583.00,721.22 L 583.00,719.51 L 583.00,717.80 L 583.00,716.09 L 583.00,714.37 L 583.00,712.66 L 583.00,710.95 L 583.00,709.24 L 583.00,707.53 L 583.00,705.81 L 583.00,704.10 L 583.00,702.39 L 583.00,700.68 L 583.00,698.97 L 583.00,697.25 L 583.00,695.54 L 583.00,693.83 L 583.00,692.12 L 583.00,690.41 L 583.00,688.70 L 583.00,686.98 L 583.00,685.27 L 583.00,683.56 L 583.00,681.85 L 583.00,680.14 L 583.00,678.42 L 583.00,676.71 L 583.00,675.00 L 583.00,673.29 L 583.00,671.58 L 583.00,669.87 L 583.00,668.15 L 583.00,666.44 L 583.00,664.73 L 583.00,663.02 L 583.00,661.31 L 583.00,659.59 L 583.00,657.88 L 583.00,656.17 L 583.00,654.46 L 583.00,652.75 L 583.00,651.03 L 583.00,649.32 L 583.00,647.61 L 583.00,645.90 L 583.00,644.19 L 583.00,642.47 L 583.00,640.76 L 583.00,639.05 L 583.01,637.34 L 583.01,635.63 L 583.01,633.91 L 583.01,632.20 L 583.00,630.49 L 583.00,628.78 L 583.00,627.07 L 582.99,625.36 L 582.99,623.65 L 582.98,621.94 L 582.98,620.23 L 582.99,618.51 L 583.02,616.79 L 583.05,615.07 L 583.05,613.36 L 582.94,611.68 L 582.52,610.06 L 582.06,608.46 L 581.92,606.78 L 581.99,605.05 L 582.09,603.32 L 581.97,601.63 L 581.50,600.03 L 581.03,598.43 L 580.95,596.74 L 581.06,595.00 L 580.91,593.32 L 580.41,591.73 L 580.04,590.11 L 579.96,588.41 L 579.78,586.74 L 579.33,585.14 L 578.87,583.53 L 578.40,581.93 L 578.08,580.30 L 577.99,578.61 L 577.81,576.94 L 577.36,575.33 L 576.92,573.72 L 576.52,572.11 L 576.13,570.49 L 575.74,568.87 L 575.17,567.29 L 574.52,565.73 L 573.98,564.15 L 573.55,562.54 L 573.04,560.95 L 572.39,559.38 L 571.95,557.78 L 571.45,556.18 L 570.81,554.62 L 570.30,553.03 L 569.86,551.42 L 569.39,549.82 L 568.73,548.27 L 567.87,546.76 L 567.03,545.25 L 566.38,543.68 L 566.02,542.06 L 565.64,540.44 L 564.97,538.89 L 564.23,537.35 L 563.45,535.81 L 562.66,534.28 L 561.87,532.76 L 561.08,531.25 L 560.31,529.73 L 559.56,528.19 L 558.83,526.64 L 558.12,525.07 L 557.36,523.52 L 556.52,522.05 L 555.53,520.68 L 554.45,519.38 L 553.48,517.99 L 552.68,516.49 L 551.96,514.92 L 551.25,513.35 L 550.44,511.85 L 549.42,510.50 L 548.30,509.23 L 547.40,507.79 L 546.64,506.26 L 545.71,504.84 L 544.58,503.58 L 543.65,502.16 L 542.89,500.63 L 541.94,499.23 L 540.85,497.93 L 539.72,496.66 L 538.61,495.38 L 537.53,494.08 L 536.48,492.75 L 535.48,491.39 L 534.57,489.97 L 533.54,488.62 L 532.32,487.41 L 531.17,486.16 L 530.13,484.83 L 529.13,483.47 L 528.08,482.14 L 526.95,480.86 L 525.74,479.65 L 524.50,478.48 L 523.25,477.32 L 522.02,476.12 L 520.82,474.88 L 519.64,473.64 L 518.46,472.39 L 517.27,471.15 L 516.06,469.95 L 514.81,468.79 L 513.52,467.69 L 512.17,466.67 L 510.81,465.67 L 509.51,464.58 L 508.33,463.32 L 507.19,462.03 L 505.90,460.91 L 504.53,459.93 L 503.16,458.94 L 501.89,457.82 L 500.66,456.63 L 499.39,455.50 L 498.02,454.51 L 496.66,453.51 L 495.37,452.41 L 493.95,451.49 L 492.43,450.71 L 490.97,449.84 L 489.66,448.78 L 488.33,447.73 L 486.95,446.75 L 485.67,445.64 L 484.30,444.65 L 482.78,443.87 L 481.21,443.16 L 479.70,442.36 L 478.36,441.33 L 477.09,440.20 L 475.66,439.30 L 474.13,438.52 L 472.60,437.77 L 471.05,437.03 L 469.51,436.28 L 467.96,435.53 L 466.44,434.72 L 465.02,433.80 L 463.68,432.80 L 462.27,432.10 L 460.82,431.53 L 459.50,430.55 L 458.12,429.56 L 456.61,428.76 L 455.02,428.19 L 453.39,427.81 L 451.78,427.41 L 450.22,426.76 L 448.71,425.89 L 447.20,425.03 L 445.68,424.25 L 444.13,423.56 L 442.52,423.10 L 440.89,422.79 L 439.31,422.20 L 437.79,421.40 L 436.26,420.61 L 434.67,420.10 L 433.03,419.80 L 431.46,419.22 L 429.91,418.52 L 428.31,418.05 L 426.68,417.69 L 425.11,417.08 L 423.57,416.39 L 421.96,415.92 L 420.33,415.58 L 418.71,415.21 L 417.08,414.84 L 415.51,414.24 L 413.96,413.55 L 412.38,413.02 L 410.76,412.64 L 409.14,412.24 L 407.47,412.06 L 405.80,411.89 L 404.16,411.58 L 402.54,411.19 L 400.94,410.71 L 399.34,410.24 L 397.67,410.04 L 395.98,409.95 L 394.35,409.61 L 392.75,409.16 L 391.07,409.01 L 389.39,408.88 L 387.79,408.40 L 386.17,408.02 L 384.46,407.99 L 382.74,408.04 L 381.07,407.85 L 379.48,407.34 L 377.86,406.96 L 376.16,406.92 L 374.41,407.05 L 372.69,407.08 L 371.05,406.81 L 369.46,406.29 L 367.81,406.02 L 366.10,405.98 L 364.39,405.97 L 362.68,405.97 L 360.97,405.99 L 359.26,406.01 L 357.54,406.02 L 355.83,406.02 L 354.11,406.01 L 352.40,405.99 L 350.69,405.98 L 348.98,405.98 L 347.27,406.00 L 345.57,406.04 L 343.86,406.06 L 342.13,405.98 L 340.39,405.86 L 338.68,405.85 Z"/>
    <path d="M 941.08,411.42 L 939.45,411.58 L 937.82,411.75 L 936.19,411.92 L 934.55,412.05 L 932.89,412.16 L 931.24,412.29 L 929.60,412.48 L 927.98,412.74 L 926.37,413.04 L 924.78,413.38 L 923.19,413.73 L 921.59,414.08 L 920.00,414.43 L 918.39,414.75 L 916.79,415.07 L 915.18,415.38 L 913.58,415.70 L 911.98,416.03 L 910.38,416.37 L 908.79,416.73 L 907.20,417.11 L 905.62,417.51 L 904.04,417.93 L 902.47,418.36 L 900.90,418.81 L 899.33,419.28 L 897.76,419.77 L 896.20,420.26 L 894.63,420.77 L 893.07,421.29 L 891.52,421.81 L 889.97,422.33 L 888.42,422.86 L 886.87,423.40 L 885.33,423.95 L 883.79,424.51 L 882.25,425.08 L 880.71,425.68 L 879.18,426.30 L 877.64,426.93 L 876.11,427.59 L 874.59,428.26 L 873.07,428.95 L 871.55,429.66 L 870.04,430.38 L 868.53,431.12 L 867.03,431.88 L 865.54,432.65 L 864.06,433.43 L 862.58,434.22 L 861.11,435.02 L 859.65,435.84 L 858.21,436.66 L 856.76,437.49 L 855.33,438.34 L 853.90,439.19 L 852.48,440.05 L 851.07,440.91 L 849.65,441.79 L 848.25,442.67 L 846.85,443.56 L 845.46,444.46 L 844.07,445.38 L 842.70,446.30 L 841.34,447.24 L 839.98,448.20 L 838.64,449.17 L 837.31,450.16 L 835.98,451.15 L 834.66,452.16 L 833.35,453.17 L 832.04,454.19 L 830.74,455.21 L 829.44,456.24 L 828.14,457.27 L 826.85,458.31 L 825.57,459.37 L 824.30,460.43 L 823.04,461.51 L 821.79,462.61 L 820.55,463.73 L 819.33,464.87 L 818.12,466.03 L 816.92,467.20 L 815.72,468.37 L 814.51,469.54 L 813.31,470.71 L 812.09,471.87 L 810.86,473.02 L 809.62,474.08 L 808.38,474.67 L 807.13,474.40 L 805.91,473.09 L 804.76,471.45 L 803.71,470.01 L 802.70,468.72 L 801.69,467.49 L 800.66,466.25 L 799.59,465.01 L 798.49,463.77 L 797.37,462.53 L 796.22,461.31 L 795.05,460.10 L 793.86,458.91 L 792.65,457.75 L 791.42,456.61 L 790.18,455.51 L 788.93,454.42 L 787.67,453.34 L 786.40,452.28 L 785.12,451.21 L 783.85,450.15 L 782.57,449.09 L 781.28,448.04 L 779.99,446.99 L 778.68,445.97 L 777.36,444.96 L 776.03,443.98 L 774.67,443.02 L 773.30,442.10 L 771.92,441.20 L 770.52,440.31 L 769.11,439.44 L 767.70,438.57 L 766.28,437.70 L 764.87,436.82 L 763.47,435.92 L 762.07,435.02 L 760.66,434.13 L 759.24,433.25 L 757.81,432.39 L 756.36,431.57 L 754.89,430.79 L 753.38,430.07 L 751.86,429.38 L 750.32,428.73 L 748.78,428.11 L 747.23,427.49 L 745.69,426.88 L 744.15,426.27 L 742.63,425.64 L 741.12,425.01 L 739.60,424.39 L 738.07,423.77 L 736.52,423.16 L 734.97,422.59 L 733.41,422.07 L 731.85,421.59 L 730.28,421.13 L 728.71,420.69 L 727.14,420.25 L 725.57,419.80 L 724.00,419.34 L 722.43,418.86 L 720.85,418.41 L 719.27,418.01 L 717.67,417.67 L 716.07,417.38 L 714.46,417.09 L 712.85,416.78 L 711.25,416.47 L 709.64,416.15 L 708.03,415.83 L 706.43,415.53 L 704.82,415.24 L 703.21,414.97 L 701.60,414.72 L 699.98,414.49 L 698.34,414.29 L 696.70,414.10 L 695.05,413.94 L 693.39,413.80 L 691.75,413.66 L 690.11,413.52 L 688.49,413.38 L 686.87,413.25 L 685.22,413.13 L 683.56,413.03 L 681.89,412.96 L 680.21,412.90 L 678.52,412.86 L 676.82,412.85 L 675.13,412.86 L 673.44,412.89 L 671.76,412.94 L 670.09,413.03 L 668.43,413.14 L 666.79,413.27 L 665.16,413.43 L 663.55,413.59 L 661.92,413.74 L 660.27,413.86 L 658.60,413.95 L 656.93,414.03 L 655.27,414.14 L 653.62,414.28 L 651.98,414.44 L 650.35,414.62 L 648.73,414.83 L 647.11,415.05 L 645.49,415.30 L 643.87,415.55 L 642.25,415.82 L 640.64,416.10 L 639.03,416.39 L 637.42,416.69 L 635.81,416.99 L 634.20,417.30 L 632.60,417.62 L 631.00,417.95 L 629.41,418.29 L 627.81,418.64 L 626.22,419.03 L 624.64,419.44 L 623.07,419.89 L 621.51,420.40 L 619.96,420.92 L 618.40,421.42 L 616.83,421.90 L 615.26,422.35 L 613.69,422.80 L 612.11,423.24 L 610.54,423.69 L 608.97,424.15 L 607.41,424.64 L 605.85,425.15 L 604.30,425.69 L 602.76,426.24 L 601.22,426.82 L 599.68,427.42 L 598.15,428.04 L 596.62,428.67 L 595.09,429.33 L 593.57,429.99 L 592.05,430.67 L 590.54,431.36 L 589.02,432.06 L 587.51,432.77 L 585.99,433.48 L 584.48,434.20 L 582.97,434.92 L 581.47,435.66 L 579.97,436.40 L 578.47,437.16 L 576.98,437.92 L 575.49,438.69 L 574.01,439.47 L 572.53,440.26 L 571.06,441.07 L 569.60,441.88 L 568.15,442.71 L 566.70,443.55 L 565.27,444.40 L 563.84,445.27 L 562.43,446.15 L 561.02,447.04 L 559.63,447.95 L 558.25,448.87 L 556.89,449.81 L 555.53,450.76 L 554.20,451.73 L 552.87,452.71 L 551.57,453.71 L 550.28,454.73 L 549.00,455.76 L 547.74,456.81 L 546.49,457.87 L 545.23,458.94 L 543.95,460.00 L 542.64,461.05 L 541.28,462.07 L 539.86,463.08 L 538.37,464.04 L 536.91,465.00 L 535.85,466.01 L 535.57,467.17 L 536.20,468.49 L 537.23,469.82 L 538.32,471.09 L 539.45,472.33 L 540.58,473.56 L 541.70,474.80 L 542.81,476.05 L 543.91,477.30 L 545.00,478.57 L 546.08,479.84 L 547.14,481.11 L 548.20,482.40 L 549.24,483.69 L 550.27,484.99 L 551.29,486.30 L 552.30,487.62 L 553.29,488.94 L 554.27,490.27 L 555.24,491.61 L 556.20,492.95 L 557.15,494.30 L 558.08,495.66 L 559.01,497.03 L 559.92,498.41 L 560.83,499.80 L 561.72,501.19 L 562.61,502.60 L 563.49,504.02 L 564.37,505.45 L 565.23,506.89 L 566.09,508.33 L 566.94,509.78 L 567.77,511.22 L 568.59,512.67 L 569.40,514.11 L 570.20,515.56 L 570.99,517.00 L 571.76,518.45 L 572.53,519.91 L 573.28,521.39 L 574.03,522.88 L 574.78,524.39 L 575.52,525.93 L 576.26,527.49 L 576.99,529.09 L 577.73,530.73 L 578.46,532.37 L 579.25,533.74 L 580.13,534.37 L 581.14,533.93 L 582.13,532.66 L 583.09,531.09 L 584.20,529.78 L 585.38,528.63 L 586.56,527.46 L 587.74,526.28 L 588.91,525.07 L 590.08,523.87 L 591.25,522.66 L 592.44,521.47 L 593.64,520.30 L 594.87,519.16 L 596.12,518.05 L 597.39,516.99 L 598.68,515.95 L 599.99,514.94 L 601.32,513.95 L 602.66,512.98 L 604.01,512.02 L 605.36,511.07 L 606.73,510.13 L 608.10,509.20 L 609.49,508.29 L 610.89,507.39 L 612.30,506.52 L 613.74,505.67 L 615.19,504.85 L 616.67,504.07 L 618.16,503.31 L 619.67,502.58 L 621.19,501.87 L 622.72,501.18 L 624.25,500.51 L 625.78,499.86 L 627.31,499.22 L 628.84,498.59 L 630.37,497.99 L 631.91,497.42 L 633.45,496.88 L 635.01,496.37 L 636.57,495.90 L 638.15,495.46 L 639.73,495.05 L 641.32,494.66 L 642.91,494.28 L 644.50,493.90 L 646.09,493.52 L 647.69,493.15 L 649.28,492.82 L 650.89,492.53 L 652.52,492.33 L 654.17,492.21 L 655.83,492.16 L 657.49,492.08 L 659.13,491.93 L 660.76,491.66 L 662.37,491.35 L 664.00,491.11 L 665.65,490.97 L 667.31,490.93 L 668.97,490.97 L 670.64,491.08 L 672.29,491.23 L 673.93,491.43 L 675.56,491.63 L 677.19,491.84 L 678.81,492.02 L 680.45,492.16 L 682.10,492.31 L 683.73,492.50 L 685.35,492.77 L 686.95,493.10 L 688.55,493.48 L 690.13,493.89 L 691.71,494.33 L 693.28,494.78 L 694.84,495.24 L 696.40,495.70 L 697.96,496.17 L 699.52,496.66 L 701.07,497.18 L 702.64,497.72 L 704.20,498.30 L 705.76,498.91 L 707.29,499.56 L 708.79,500.26 L 710.24,500.99 L 711.67,501.76 L 713.08,502.54 L 714.52,503.34 L 715.96,504.15 L 717.40,504.97 L 718.84,505.82 L 720.26,506.70 L 721.67,507.60 L 723.04,508.54 L 724.39,509.52 L 725.71,510.53 L 727.00,511.57 L 728.27,512.64 L 729.53,513.74 L 730.77,514.85 L 732.00,515.97 L 733.22,517.11 L 734.43,518.26 L 735.63,519.43 L 736.81,520.61 L 737.98,521.80 L 739.14,523.02 L 740.27,524.25 L 741.38,525.49 L 742.47,526.76 L 743.54,528.04 L 744.58,529.34 L 745.60,530.66 L 746.58,532.00 L 747.54,533.37 L 748.46,534.75 L 749.36,536.15 L 750.22,537.58 L 751.05,539.03 L 751.85,540.49 L 752.62,541.97 L 753.38,543.46 L 754.11,544.96 L 754.82,546.47 L 755.51,547.99 L 756.17,549.53 L 756.80,551.06 L 757.40,552.61 L 757.96,554.17 L 758.48,555.72 L 758.95,557.29 L 759.39,558.86 L 759.80,560.44 L 760.19,562.02 L 760.54,563.61 L 760.88,565.21 L 761.20,566.81 L 761.51,568.41 L 761.79,570.02 L 762.05,571.64 L 762.28,573.27 L 762.48,574.90 L 762.65,576.54 L 762.79,578.19 L 762.90,579.84 L 762.98,581.50 L 763.05,583.16 L 763.09,584.83 L 763.12,586.50 L 763.13,588.18 L 763.13,589.85 L 763.13,591.53 L 763.12,593.21 L 763.10,594.89 L 763.09,596.58 L 763.08,598.26 L 763.07,599.94 L 763.06,601.62 L 763.05,603.30 L 763.04,604.98 L 763.03,606.66 L 763.02,608.34 L 763.02,610.02 L 763.01,611.70 L 763.00,613.38 L 763.00,615.06 L 762.99,616.73 L 762.99,618.41 L 762.98,620.09 L 762.98,621.77 L 762.98,623.45 L 762.97,625.13 L 762.97,626.81 L 762.97,628.49 L 762.97,630.17 L 762.97,631.84 L 762.96,633.52 L 762.96,635.20 L 762.96,636.88 L 762.96,638.56 L 762.96,640.24 L 762.96,641.91 L 762.96,643.59 L 762.97,645.27 L 762.97,646.95 L 762.97,648.63 L 762.97,650.30 L 762.97,651.98 L 762.97,653.66 L 762.97,655.34 L 762.98,657.02 L 762.98,658.69 L 762.98,660.37 L 762.98,662.05 L 762.99,663.73 L 762.99,665.40 L 762.99,667.08 L 762.99,668.76 L 762.99,670.44 L 763.00,672.12 L 763.00,673.79 L 763.00,675.47 L 763.00,677.15 L 763.00,678.83 L 763.00,680.51 L 763.01,682.18 L 763.01,683.86 L 763.01,685.54 L 763.01,687.22 L 763.01,688.89 L 763.01,690.57 L 763.01,692.25 L 763.01,693.93 L 763.01,695.61 L 763.01,697.28 L 763.01,698.96 L 763.01,700.64 L 763.02,702.32 L 763.02,704.00 L 763.02,705.67 L 763.02,707.35 L 763.02,709.03 L 763.02,710.71 L 763.02,712.39 L 763.02,714.06 L 763.02,715.74 L 763.02,717.42 L 763.02,719.10 L 763.02,720.78 L 763.02,722.45 L 763.01,724.13 L 763.01,725.81 L 763.01,727.49 L 763.01,729.17 L 763.01,730.84 L 763.01,732.52 L 763.01,734.20 L 763.01,735.88 L 763.01,737.56 L 763.01,739.24 L 763.01,740.91 L 763.01,742.59 L 763.01,744.27 L 763.01,745.95 L 763.01,747.63 L 763.01,749.31 L 763.01,750.98 L 763.00,752.66 L 763.00,754.34 L 763.00,756.02 L 763.00,757.70 L 763.00,759.37 L 763.00,761.05 L 763.00,762.73 L 763.00,764.41 L 763.00,766.09 L 763.00,767.77 L 763.00,769.44 L 763.00,771.12 L 763.00,772.80 L 762.99,774.48 L 762.99,776.16 L 762.99,777.84 L 762.99,779.52 L 762.99,781.19 L 762.99,782.87 L 762.99,784.55 L 762.99,786.23 L 762.99,787.91 L 762.99,789.59 L 762.99,791.26 L 762.99,792.94 L 762.99,794.62 L 762.99,796.30 L 762.99,797.98 L 762.99,799.66 L 762.99,801.34 L 762.99,803.01 L 762.99,804.69 L 762.99,806.37 L 762.99,808.05 L 762.99,809.73 L 762.99,811.41 L 762.99,813.08 L 762.99,814.76 L 762.99,816.44 L 762.99,818.12 L 762.99,819.80 L 762.99,821.48 L 762.99,823.16 L 762.99,824.83 L 762.99,826.51 L 762.99,828.19 L 762.99,829.87 L 763.00,831.55 L 763.00,833.23 L 763.00,834.90 L 763.00,836.58 L 763.00,838.26 L 763.01,839.93 L 763.01,841.60 L 763.02,843.28 L 763.03,844.94 L 763.04,846.61 L 763.05,848.28 L 763.06,849.94 L 763.06,851.61 L 763.03,853.32 L 762.94,855.08 L 762.82,856.89 L 762.81,858.58 L 763.11,859.96 L 763.86,860.88 L 765.21,861.21 L 767.02,861.08 L 768.80,860.99 L 770.48,860.97 L 772.15,860.98 L 773.82,860.99 L 775.49,860.99 L 777.17,861.00 L 778.84,861.00 L 780.52,861.00 L 782.20,861.01 L 783.88,861.01 L 785.56,861.01 L 787.24,861.01 L 788.92,861.01 L 790.60,861.00 L 792.28,861.00 L 793.96,861.00 L 795.63,861.00 L 797.31,861.00 L 798.99,861.00 L 800.66,860.99 L 802.34,860.99 L 804.02,860.99 L 805.69,860.99 L 807.37,860.99 L 809.05,860.99 L 810.73,861.00 L 812.41,861.00 L 814.09,861.00 L 815.77,861.01 L 817.45,861.01 L 819.13,861.01 L 820.81,861.02 L 822.49,861.02 L 824.17,861.01 L 825.84,861.01 L 827.52,861.00 L 829.19,860.99 L 830.86,860.97 L 832.52,860.96 L 834.20,860.95 L 835.88,860.97 L 837.60,861.04 L 839.33,861.13 L 841.05,861.12 L 842.65,860.86 L 843.74,860.06 L 844.03,858.53 L 844.04,856.80 L 844.04,855.10 L 844.03,853.42 L 844.03,851.74 L 844.02,850.06 L 844.02,848.38 L 844.02,846.70 L 844.01,845.02 L 844.01,843.34 L 844.01,841.66 L 844.00,839.98 L 844.00,838.30 L 844.00,836.62 L 844.00,834.94 L 844.00,833.26 L 844.00,831.59 L 844.00,829.91 L 843.99,828.23 L 843.99,826.55 L 843.99,824.87 L 843.99,823.20 L 843.99,821.52 L 843.99,819.84 L 843.99,818.16 L 843.99,816.48 L 843.99,814.80 L 843.99,813.13 L 843.99,811.45 L 843.99,809.77 L 843.99,808.09 L 843.99,806.41 L 843.99,804.74 L 843.99,803.06 L 843.99,801.38 L 843.99,799.70 L 844.00,798.02 L 844.00,796.35 L 844.00,794.67 L 844.00,792.99 L 844.00,791.31 L 844.00,789.63 L 844.00,787.96 L 844.00,786.28 L 844.00,784.60 L 844.00,782.92 L 844.00,781.24 L 844.00,779.57 L 844.00,777.89 L 844.00,776.21 L 844.00,774.53 L 844.00,772.85 L 844.00,771.18 L 844.00,769.50 L 844.00,767.82 L 844.00,766.14 L 844.00,764.46 L 844.00,762.78 L 844.00,761.11 L 844.00,759.43 L 844.00,757.75 L 844.00,756.07 L 844.00,754.39 L 844.00,752.72 L 844.00,751.04 L 844.00,749.36 L 844.00,747.68 L 844.00,746.00 L 844.00,744.33 L 844.00,742.65 L 844.00,740.97 L 844.00,739.29 L 844.00,737.61 L 844.00,735.93 L 844.01,734.26 L 844.01,732.58 L 844.01,730.90 L 844.01,729.22 L 844.01,727.54 L 844.01,725.87 L 844.01,724.19 L 844.01,722.51 L 844.01,720.83 L 844.01,719.15 L 844.01,717.48 L 844.01,715.80 L 844.01,714.12 L 844.01,712.44 L 844.01,710.76 L 844.01,709.08 L 844.01,707.41 L 844.01,705.73 L 844.01,704.05 L 844.00,702.37 L 844.00,700.69 L 844.00,699.01 L 844.00,697.34 L 844.00,695.66 L 844.00,693.98 L 844.00,692.30 L 844.00,690.62 L 844.00,688.95 L 844.00,687.27 L 844.00,685.59 L 844.00,683.91 L 844.00,682.23 L 844.00,680.55 L 844.00,678.88 L 844.00,677.20 L 844.00,675.52 L 844.00,673.84 L 844.00,672.16 L 844.00,670.48 L 843.99,668.81 L 843.99,667.13 L 843.99,665.45 L 843.99,663.77 L 843.99,662.09 L 843.99,660.41 L 843.99,658.74 L 843.99,657.06 L 843.99,655.38 L 843.99,653.70 L 843.99,652.02 L 843.98,650.34 L 843.98,648.67 L 843.98,646.99 L 843.98,645.31 L 843.98,643.63 L 843.98,641.95 L 843.98,640.27 L 843.98,638.60 L 843.99,636.92 L 843.99,635.24 L 843.99,633.56 L 843.99,631.89 L 843.99,630.21 L 844.00,628.53 L 844.00,626.85 L 844.00,625.18 L 844.01,623.50 L 844.02,621.82 L 844.02,620.15 L 844.03,618.47 L 844.04,616.79 L 844.04,615.12 L 844.05,613.44 L 844.05,611.76 L 844.05,610.08 L 844.05,608.41 L 844.05,606.73 L 844.04,605.05 L 844.03,603.37 L 844.01,601.68 L 843.99,600.00 L 843.97,598.32 L 843.94,596.63 L 843.91,594.95 L 843.89,593.26 L 843.88,591.58 L 843.88,589.91 L 843.90,588.23 L 843.94,586.57 L 844.01,584.90 L 844.11,583.25 L 844.24,581.60 L 844.40,579.96 L 844.61,578.33 L 844.85,576.71 L 845.13,575.09 L 845.43,573.49 L 845.76,571.89 L 846.11,570.29 L 846.48,568.70 L 846.87,567.12 L 847.28,565.54 L 847.74,563.97 L 848.23,562.41 L 848.77,560.86 L 849.37,559.31 L 850.01,557.78 L 850.67,556.25 L 851.33,554.73 L 851.96,553.20 L 852.56,551.68 L 853.17,550.17 L 853.85,548.68 L 854.58,547.20 L 855.36,545.75 L 856.19,544.31 L 857.05,542.89 L 857.95,541.48 L 858.87,540.09 L 859.82,538.72 L 860.78,537.36 L 861.75,536.01 L 862.75,534.68 L 863.76,533.36 L 864.79,532.06 L 865.84,530.77 L 866.91,529.49 L 867.99,528.23 L 869.09,526.99 L 870.21,525.76 L 871.34,524.54 L 872.50,523.34 L 873.67,522.15 L 874.86,520.98 L 876.06,519.82 L 877.28,518.67 L 878.52,517.54 L 879.78,516.43 L 881.05,515.34 L 882.34,514.27 L 883.64,513.22 L 884.96,512.20 L 886.29,511.21 L 887.64,510.24 L 889.00,509.31 L 890.37,508.39 L 891.77,507.51 L 893.18,506.64 L 894.61,505.79 L 896.05,504.97 L 897.52,504.16 L 898.99,503.37 L 900.49,502.61 L 901.99,501.86 L 903.50,501.13 L 905.02,500.42 L 906.55,499.73 L 908.09,499.06 L 909.62,498.40 L 911.16,497.77 L 912.70,497.15 L 914.24,496.56 L 915.78,495.98 L 917.31,495.42 L 918.86,494.89 L 920.40,494.38 L 921.96,493.91 L 923.53,493.46 L 925.11,493.06 L 926.70,492.68 L 928.31,492.34 L 929.92,492.02 L 931.54,491.73 L 933.16,491.46 L 934.78,491.21 L 936.40,490.98 L 938.01,490.77 L 939.64,490.58 L 941.27,490.42 L 942.91,490.27 L 944.56,490.15 L 946.23,490.05 L 947.90,489.97 L 949.58,489.92 L 951.27,489.90 L 952.95,489.90 L 954.63,489.93 L 956.29,489.98 L 957.96,490.06 L 959.61,490.17 L 961.26,490.29 L 962.90,490.44 L 964.54,490.61 L 966.17,490.80 L 967.80,491.01 L 969.42,491.26 L 971.03,491.54 L 972.63,491.87 L 974.22,492.24 L 975.81,492.64 L 977.38,493.07 L 978.96,493.52 L 980.53,493.98 L 982.09,494.44 L 983.66,494.90 L 985.23,495.37 L 986.80,495.84 L 988.36,496.33 L 989.92,496.84 L 991.47,497.38 L 993.02,497.95 L 994.55,498.56 L 996.08,499.21 L 997.60,499.88 L 999.10,500.59 L 1000.60,501.32 L 1002.08,502.08 L 1003.55,502.86 L 1005.01,503.67 L 1006.45,504.50 L 1007.88,505.35 L 1009.30,506.22 L 1010.70,507.11 L 1012.09,508.03 L 1013.46,508.96 L 1014.82,509.91 L 1016.17,510.89 L 1017.50,511.88 L 1018.81,512.90 L 1020.11,513.93 L 1021.40,514.98 L 1022.68,516.05 L 1023.94,517.13 L 1025.18,518.24 L 1026.42,519.36 L 1027.64,520.49 L 1028.85,521.65 L 1030.04,522.82 L 1031.22,524.00 L 1032.39,525.20 L 1033.55,526.42 L 1034.68,527.65 L 1035.80,528.89 L 1036.90,530.16 L 1037.98,531.44 L 1039.02,532.74 L 1040.04,534.06 L 1041.02,535.40 L 1041.97,536.76 L 1042.89,538.13 L 1043.78,539.53 L 1044.65,540.94 L 1045.49,542.37 L 1046.32,543.81 L 1047.14,545.27 L 1047.93,546.74 L 1048.71,548.22 L 1049.47,549.71 L 1050.21,551.22 L 1050.92,552.73 L 1051.62,554.25 L 1052.29,555.78 L 1052.94,557.31 L 1053.56,558.86 L 1054.15,560.40 L 1054.71,561.95 L 1055.25,563.51 L 1055.75,565.06 L 1056.22,566.63 L 1056.66,568.20 L 1057.06,569.77 L 1057.42,571.36 L 1057.74,572.96 L 1058.02,574.57 L 1058.25,576.19 L 1058.45,577.82 L 1058.62,579.46 L 1058.75,581.11 L 1058.86,582.77 L 1058.95,584.43 L 1059.01,586.09 L 1059.06,587.76 L 1059.09,589.43 L 1059.10,591.11 L 1059.11,592.78 L 1059.10,594.46 L 1059.09,596.15 L 1059.07,597.83 L 1059.05,599.51 L 1059.03,601.19 L 1059.01,602.87 L 1058.99,604.56 L 1058.98,606.24 L 1058.97,607.92 L 1058.96,609.60 L 1058.96,611.27 L 1058.96,612.95 L 1058.96,614.63 L 1058.96,616.31 L 1058.96,617.98 L 1058.97,619.66 L 1058.97,621.34 L 1058.98,623.02 L 1058.98,624.69 L 1058.98,626.37 L 1058.99,628.05 L 1058.99,629.72 L 1059.00,631.40 L 1059.00,633.08 L 1059.00,634.76 L 1059.00,636.44 L 1059.01,638.11 L 1059.01,639.79 L 1059.01,641.47 L 1059.01,643.15 L 1059.01,644.82 L 1059.01,646.50 L 1059.01,648.18 L 1059.01,649.86 L 1059.01,651.54 L 1059.01,653.22 L 1059.01,654.89 L 1059.01,656.57 L 1059.01,658.25 L 1059.01,659.93 L 1059.01,661.61 L 1059.01,663.29 L 1059.01,664.96 L 1059.01,666.64 L 1059.01,668.32 L 1059.01,670.00 L 1059.01,671.68 L 1059.01,673.36 L 1059.01,675.04 L 1059.01,676.71 L 1059.00,678.39 L 1059.00,680.07 L 1059.00,681.75 L 1059.00,683.43 L 1059.00,685.11 L 1059.00,686.79 L 1059.00,688.46 L 1059.00,690.14 L 1059.00,691.82 L 1058.99,693.50 L 1058.99,695.18 L 1058.99,696.86 L 1058.99,698.53 L 1058.99,700.21 L 1058.99,701.89 L 1058.99,703.57 L 1058.99,705.25 L 1058.99,706.92 L 1058.99,708.60 L 1058.99,710.28 L 1058.99,711.96 L 1058.99,713.64 L 1058.99,715.31 L 1058.99,716.99 L 1058.99,718.67 L 1058.99,720.35 L 1058.99,722.02 L 1058.99,723.70 L 1059.00,725.38 L 1059.00,727.06 L 1059.00,728.74 L 1059.00,730.41 L 1059.00,732.09 L 1059.00,733.77 L 1059.00,735.45 L 1059.00,737.12 L 1059.00,738.80 L 1059.00,740.48 L 1059.00,742.16 L 1059.00,743.83 L 1059.00,745.51 L 1059.01,747.19 L 1059.01,748.87 L 1059.01,750.55 L 1059.01,752.22 L 1059.01,753.90 L 1059.01,755.58 L 1059.01,757.26 L 1059.01,758.94 L 1059.01,760.62 L 1059.01,762.29 L 1059.01,763.97 L 1059.01,765.65 L 1059.01,767.33 L 1059.01,769.01 L 1059.01,770.69 L 1059.01,772.37 L 1059.01,774.04 L 1059.01,775.72 L 1059.00,777.40 L 1059.00,779.08 L 1059.00,780.76 L 1059.00,782.44 L 1059.00,784.12 L 1059.00,785.80 L 1059.00,787.48 L 1058.99,789.16 L 1058.99,790.84 L 1058.99,792.52 L 1058.99,794.20 L 1058.99,795.87 L 1058.99,797.55 L 1058.99,799.23 L 1058.99,800.91 L 1058.99,802.59 L 1058.99,804.27 L 1058.99,805.95 L 1058.99,807.62 L 1058.99,809.30 L 1058.99,810.98 L 1058.99,812.65 L 1058.99,814.33 L 1058.99,816.01 L 1059.00,817.68 L 1059.00,819.36 L 1059.00,821.03 L 1059.01,822.70 L 1059.01,824.38 L 1059.02,826.05 L 1059.02,827.73 L 1059.02,829.40 L 1059.03,831.08 L 1059.03,832.75 L 1059.03,834.43 L 1059.03,836.11 L 1059.03,837.79 L 1059.03,839.47 L 1059.02,841.15 L 1059.02,842.84 L 1059.01,844.52 L 1059.00,846.21 L 1058.99,847.90 L 1058.97,849.60 L 1058.95,851.29 L 1058.93,852.99 L 1058.91,854.69 L 1058.88,856.40 L 1058.86,858.10 L 1059.02,859.62 L 1059.66,860.64 L 1060.92,861.05 L 1062.51,861.15 L 1064.26,861.10 L 1066.02,861.03 L 1067.75,860.98 L 1069.44,860.96 L 1071.11,860.95 L 1072.76,860.96 L 1074.41,860.97 L 1076.07,860.98 L 1077.73,860.99 L 1079.41,861.00 L 1081.09,861.00 L 1082.77,861.01 L 1084.46,861.01 L 1086.15,861.02 L 1087.84,861.02 L 1089.53,861.02 L 1091.22,861.02 L 1092.91,861.02 L 1094.60,861.02 L 1096.28,861.02 L 1097.96,861.01 L 1099.63,861.01 L 1101.30,861.00 L 1102.97,861.00 L 1104.64,860.99 L 1106.30,860.99 L 1107.97,860.99 L 1109.63,860.98 L 1111.30,860.98 L 1112.96,860.98 L 1114.63,860.97 L 1116.30,860.97 L 1117.98,860.98 L 1119.66,860.98 L 1121.34,860.98 L 1123.03,860.99 L 1124.72,861.00 L 1126.42,861.01 L 1128.12,861.02 L 1129.84,861.03 L 1131.56,861.05 L 1133.29,861.07 L 1135.03,861.09 L 1136.76,861.10 L 1138.36,860.96 L 1139.68,860.52 L 1140.55,859.60 L 1140.94,858.17 L 1141.03,856.45 L 1141.05,854.69 L 1141.05,852.97 L 1141.05,851.26 L 1141.04,849.58 L 1141.03,847.91 L 1141.01,846.25 L 1141.01,844.58 L 1141.00,842.91 L 1140.99,841.24 L 1140.99,839.57 L 1140.99,837.89 L 1140.99,836.22 L 1140.99,834.54 L 1140.99,832.86 L 1140.99,831.18 L 1140.99,829.50 L 1140.99,827.82 L 1141.00,826.14 L 1141.00,824.46 L 1141.00,822.78 L 1141.00,821.10 L 1141.00,819.42 L 1141.00,817.74 L 1141.00,816.06 L 1141.00,814.38 L 1141.00,812.70 L 1141.01,811.02 L 1141.01,809.35 L 1141.01,807.67 L 1141.01,805.99 L 1141.01,804.31 L 1141.00,802.63 L 1141.00,800.96 L 1141.00,799.28 L 1141.00,797.60 L 1141.00,795.92 L 1141.00,794.24 L 1141.00,792.57 L 1141.00,790.89 L 1141.00,789.21 L 1141.00,787.53 L 1141.00,785.86 L 1141.00,784.18 L 1141.00,782.50 L 1141.00,780.82 L 1141.00,779.14 L 1141.00,777.47 L 1141.00,775.79 L 1141.00,774.11 L 1141.00,772.43 L 1141.00,770.75 L 1141.00,769.08 L 1141.00,767.40 L 1141.00,765.72 L 1141.00,764.04 L 1141.00,762.36 L 1141.00,760.69 L 1141.00,759.01 L 1141.00,757.33 L 1141.00,755.65 L 1141.00,753.97 L 1141.00,752.30 L 1141.00,750.62 L 1141.00,748.94 L 1141.00,747.26 L 1141.00,745.58 L 1141.00,743.90 L 1141.00,742.23 L 1141.00,740.55 L 1141.00,738.87 L 1141.00,737.19 L 1141.00,735.51 L 1141.00,733.83 L 1141.00,732.16 L 1141.00,730.48 L 1141.00,728.80 L 1141.00,727.12 L 1141.00,725.44 L 1141.00,723.76 L 1141.00,722.09 L 1141.00,720.41 L 1141.00,718.73 L 1141.00,717.05 L 1141.00,715.37 L 1141.00,713.69 L 1141.00,712.02 L 1141.00,710.34 L 1141.00,708.66 L 1141.00,706.98 L 1141.00,705.30 L 1141.00,703.63 L 1141.00,701.95 L 1141.00,700.27 L 1141.00,698.59 L 1141.00,696.91 L 1141.00,695.23 L 1141.00,693.56 L 1141.00,691.88 L 1141.00,690.20 L 1141.00,688.52 L 1141.00,686.84 L 1141.00,685.17 L 1141.00,683.49 L 1141.00,681.81 L 1141.00,680.13 L 1141.00,678.45 L 1141.00,676.78 L 1141.00,675.10 L 1141.00,673.42 L 1141.00,671.74 L 1141.00,670.06 L 1141.00,668.39 L 1141.00,666.71 L 1141.00,665.03 L 1141.00,663.35 L 1141.00,661.67 L 1141.00,660.00 L 1141.00,658.32 L 1141.00,656.64 L 1141.00,654.96 L 1141.00,653.28 L 1141.00,651.60 L 1141.00,649.93 L 1141.00,648.25 L 1141.00,646.57 L 1141.00,644.89 L 1141.00,643.21 L 1141.00,641.54 L 1141.00,639.86 L 1141.00,638.18 L 1141.00,636.50 L 1141.00,634.82 L 1141.00,633.14 L 1141.00,631.47 L 1141.00,629.79 L 1141.00,628.11 L 1141.00,626.43 L 1141.00,624.75 L 1141.00,623.07 L 1141.01,621.40 L 1141.01,619.72 L 1141.01,618.04 L 1141.01,616.36 L 1141.01,614.68 L 1141.01,613.00 L 1141.01,611.33 L 1141.01,609.65 L 1141.01,607.97 L 1141.00,606.29 L 1141.00,604.61 L 1141.00,602.94 L 1141.00,601.26 L 1141.00,599.58 L 1141.00,597.90 L 1140.99,596.23 L 1140.99,594.55 L 1140.99,592.87 L 1140.98,591.19 L 1140.96,589.52 L 1140.90,587.86 L 1140.77,586.21 L 1140.56,584.58 L 1140.31,582.96 L 1140.10,581.33 L 1139.97,579.69 L 1139.89,578.03 L 1139.84,576.36 L 1139.80,574.69 L 1139.74,573.03 L 1139.64,571.37 L 1139.50,569.73 L 1139.31,568.10 L 1139.08,566.47 L 1138.83,564.85 L 1138.55,563.24 L 1138.26,561.63 L 1137.96,560.02 L 1137.65,558.42 L 1137.34,556.81 L 1137.01,555.21 L 1136.66,553.61 L 1136.30,552.02 L 1135.93,550.43 L 1135.54,548.85 L 1135.14,547.27 L 1134.73,545.69 L 1134.31,544.11 L 1133.88,542.53 L 1133.45,540.95 L 1133.01,539.37 L 1132.56,537.80 L 1132.09,536.23 L 1131.61,534.66 L 1131.09,533.10 L 1130.55,531.56 L 1129.98,530.02 L 1129.38,528.49 L 1128.76,526.97 L 1128.14,525.44 L 1127.51,523.92 L 1126.88,522.38 L 1126.27,520.83 L 1125.66,519.28 L 1125.05,517.73 L 1124.43,516.19 L 1123.79,514.66 L 1123.13,513.15 L 1122.44,511.67 L 1121.72,510.21 L 1120.97,508.78 L 1120.19,507.35 L 1119.38,505.92 L 1118.55,504.48 L 1117.71,503.02 L 1116.88,501.55 L 1116.06,500.09 L 1115.24,498.63 L 1114.43,497.17 L 1113.61,495.72 L 1112.78,494.28 L 1111.93,492.86 L 1111.06,491.45 L 1110.16,490.06 L 1109.24,488.68 L 1108.29,487.33 L 1107.32,485.98 L 1106.33,484.66 L 1105.32,483.34 L 1104.30,482.04 L 1103.26,480.74 L 1102.21,479.45 L 1101.15,478.17 L 1100.08,476.90 L 1099.00,475.63 L 1097.92,474.37 L 1096.83,473.11 L 1095.74,471.85 L 1094.64,470.60 L 1093.53,469.36 L 1092.42,468.12 L 1091.29,466.90 L 1090.15,465.70 L 1089.00,464.51 L 1087.83,463.34 L 1086.64,462.18 L 1085.44,461.05 L 1084.22,459.92 L 1082.99,458.81 L 1081.75,457.71 L 1080.51,456.62 L 1079.25,455.54 L 1077.99,454.46 L 1076.72,453.39 L 1075.44,452.32 L 1074.15,451.26 L 1072.86,450.22 L 1071.56,449.18 L 1070.25,448.16 L 1068.93,447.16 L 1067.60,446.17 L 1066.26,445.19 L 1064.91,444.23 L 1063.55,443.30 L 1062.17,442.38 L 1060.78,441.47 L 1059.38,440.59 L 1057.96,439.73 L 1056.52,438.89 L 1055.08,438.06 L 1053.63,437.24 L 1052.18,436.42 L 1050.73,435.59 L 1049.28,434.76 L 1047.84,433.91 L 1046.41,433.06 L 1044.98,432.21 L 1043.54,431.39 L 1042.09,430.58 L 1040.62,429.82 L 1039.13,429.11 L 1037.61,428.45 L 1036.07,427.85 L 1034.52,427.27 L 1032.96,426.71 L 1031.39,426.16 L 1029.83,425.60 L 1028.29,425.01 L 1026.76,424.40 L 1025.23,423.77 L 1023.71,423.14 L 1022.19,422.52 L 1020.66,421.91 L 1019.12,421.34 L 1017.57,420.79 L 1016.01,420.27 L 1014.45,419.77 L 1012.88,419.30 L 1011.30,418.85 L 1009.72,418.43 L 1008.14,418.02 L 1006.56,417.62 L 1004.98,417.23 L 1003.39,416.84 L 1001.81,416.45 L 1000.22,416.06 L 998.64,415.65 L 997.05,415.25 L 995.47,414.87 L 993.87,414.50 L 992.27,414.16 L 990.66,413.87 L 989.05,413.61 L 987.42,413.39 L 985.79,413.20 L 984.16,413.01 L 982.53,412.84 L 980.89,412.65 L 979.26,412.45 L 977.62,412.25 L 975.99,412.05 L 974.35,411.85 L 972.72,411.67 L 971.08,411.51 L 969.43,411.38 L 967.79,411.27 L 966.14,411.18 L 964.48,411.11 L 962.82,411.06 L 961.15,411.01 L 959.48,410.97 L 957.80,410.94 L 956.12,410.92 L 954.43,410.91 L 952.74,410.91 L 951.06,410.92 L 949.38,410.95 L 947.70,411.00 L 946.03,411.07 L 944.37,411.16 L 942.72,411.28 Z"/>
  </g>
</svg>